<svg xmlns="http://www.w3.org/2000/svg" viewBox="0 0 110 117" role="img" aria-labelledby="title desc">
  <title id="title">Detex Lab symbol</title>
  <desc id="desc">Representative-approved rose and teal Detex Lab symbol</desc>
  <g fill="#EA5E7F" fill-rule="evenodd">
    <path d="M0 0 C0.791 -0.046 1.582 -0.092 2.396 -0.139 C6.823 -0.223 9.603 0.191 13.086 3.035 C16.271 6.163 18.819 9.582 21.25 13.312 C21.473 13.645 21.473 13.645 22.599 15.329 C23.603 16.831 24.602 18.337 25.597 19.845 C27.552 22.8 29.529 25.74 31.508 28.68 C32.965 30.848 34.42 33.018 35.875 35.188 C36.053 35.452 36.053 35.452 36.952 36.791 C37.972 38.312 38.988 39.835 40.004 41.359 C40.594 42.242 41.184 43.125 41.791 44.034 C44.908 48.959 46.429 52.6 45.312 58.438 C43.702 62.032 41.52 65.185 39.312 68.438 C38.599 69.538 37.889 70.639 37.18 71.742 C32.364 79.173 27.266 86.399 22.062 93.562 C21.773 93.965 21.773 93.965 20.311 96.004 C12.397 106.78 12.397 106.78 7.237 107.88 C4.884 108.073 2.609 108.072 0.25 108 C-0.54 108.011 -1.329 108.022 -2.143 108.033 C-5.872 107.986 -8.667 107.857 -11.684 105.527 C-14.466 102.625 -15.158 100.528 -15.096 96.475 C-14.586 93.93 -13.569 92.407 -12.09 90.277 C-11.544 89.489 -10.999 88.7 -10.437 87.888 C-7.601 83.916 -4.725 79.978 -1.812 76.062 C-1.203 75.236 -0.594 74.41 0.033 73.558 C2.671 69.982 5.315 66.416 8.035 62.902 C8.418 62.401 8.8 61.899 9.194 61.382 C10.171 60.103 11.161 58.834 12.152 57.566 C13.312 55.438 13.312 55.438 13.051 53.551 C12.221 51.176 11.143 49.52 9.652 47.496 C9.11 46.753 8.567 46.01 8.008 45.244 C7.428 44.462 6.848 43.68 6.25 42.875 C5.66 42.069 5.07 41.264 4.463 40.434 C2.751 38.098 1.033 35.767 -0.688 33.438 C-2.791 30.574 -4.886 27.706 -6.965 24.824 C-8.129 23.211 -9.309 21.61 -10.504 20.02 C-15.052 13.72 -15.052 13.72 -15.312 9.688 C-14.582 5.891 -13.402 4.152 -10.688 1.438 C-7.33 -0.241 -3.703 0.085 0 0 Z " transform="translate(19.6875,4.5625)" />
  </g>
  <g fill="#28AFB0" fill-rule="evenodd">
    <path d="M0 0 C0.399 -0.012 0.399 -0.012 2.42 -0.074 C6.186 -0.093 9.012 -0.091 12.066 2.273 C15.03 5.393 15.03 5.393 15.126 8.28 C14.647 14.544 12.791 17.992 8.812 22.75 C7.723 24.126 6.637 25.505 5.555 26.887 C4.986 27.608 4.417 28.329 3.831 29.072 C0.715 33.13 -2.174 37.341 -5.062 41.562 C-5.618 42.364 -6.174 43.166 -6.747 43.992 C-12.314 52.135 -12.314 52.135 -12.938 55.375 C-11.77 57.742 -11.77 57.742 -9.75 60.25 C-8.997 61.214 -8.244 62.179 -7.492 63.145 C-7.081 63.661 -6.669 64.177 -6.245 64.709 C-3.876 67.727 -1.635 70.838 0.625 73.938 C1.093 74.576 1.561 75.214 2.043 75.872 C15.875 94.739 15.875 94.739 15.062 101.375 C13.263 104.075 11.979 105.917 9.062 107.375 C6.153 107.664 3.235 107.653 0.312 107.688 C-0.087 107.702 -0.087 107.702 -2.109 107.775 C-6.703 107.825 -9.992 107.501 -13.678 104.63 C-15.42 102.894 -16.71 101.029 -17.985 98.932 C-18.94 97.371 -19.977 95.935 -21.086 94.48 C-21.449 94.004 -21.812 93.527 -22.186 93.036 C-22.558 92.55 -22.929 92.064 -23.312 91.562 C-27.055 86.626 -30.582 81.585 -33.938 76.375 C-30.8 70.509 -27.693 64.744 -23.82 59.324 C-22.507 56.424 -22.54 54.544 -22.938 51.375 C-24.155 48.693 -25.703 46.274 -27.312 43.812 C-33.376 34.309 -33.376 34.309 -33.938 31.375 C-32.704 29.09 -31.537 27.375 -29.938 25.375 C-29.072 24.182 -28.21 22.987 -27.352 21.789 C-24.982 18.561 -22.6 15.341 -20.219 12.121 C-19.142 10.654 -18.083 9.174 -17.027 7.691 C-16.523 6.989 -16.019 6.286 -15.5 5.562 C-15.089 4.979 -14.678 4.395 -14.254 3.793 C-10.331 -0.433 -5.34 0.009 0 0 Z " transform="translate(89.9375,4.625)" />
  </g>
</svg>
